# xmcd
#
# Track frame offsets:
#	150
#	12825
#	28575
#	44522
#	63673
#	81145
#	93789
#	108961
#	131008
#	151708
#	169288
#	186810
#
# Disc length: 2709 seconds
#
# Revision: 1
# Processed by: cddbd v1.5PL3 Copyright (c) Steve Scherf et al.
# Submitted via: audiograbber 1.80
#
DISCID=910a930c
DTITLE=Marty Hall - hidden key
DYEAR=1900
DGENRE=
TTITLE0=not like I didn't know
TTITLE1=take one step at a time
TTITLE2=rock and roll hoochie koo
TTITLE3=will you be droppin' by
TTITLE4=good morning little schoolgirl
TTITLE5=ecoman
TTITLE6=I love my money
TTITLE7=kiss tomorrow goodbye
TTITLE8=mary lou
TTITLE9=gonna make it up
TTITLE10=we're thru
TTITLE11=feels like the first time
EXTD=
EXTT0=
EXTT1=
EXTT2=
EXTT3=
EXTT4=
EXTT5=
EXTT6=
EXTT7=
EXTT8=
EXTT9=
EXTT10=
EXTT11=
PLAYORDER=
